<svg width="300" height="37" viewBox="0 0 300 37" fill="none" xmlns="http://www.w3.org/2000/svg">
<g clip-path="url(#clip0_82319_452)">
<path d="M9 10L11.1 16.5H18L12.4 20.5L14.6 27L9 23L3.4 27L5.6 20.5L0 16.5H6.9L9 10Z" fill="#83B3D3"/>
</g>
<g clip-path="url(#clip1_82319_452)">
<path d="M33 10L35.1 16.5H42L36.4 20.5L38.6 27L33 23L27.4 27L29.6 20.5L24 16.5H30.9L33 10Z" fill="#83B3D3"/>
</g>
<g clip-path="url(#clip2_82319_452)">
<path d="M57 10L59.1 16.5H66L60.4 20.5L62.6 27L57 23L51.4 27L53.6 20.5L48 16.5H54.9L57 10Z" fill="#83B3D3"/>
</g>
<g clip-path="url(#clip3_82319_452)">
<path d="M81 10L83.1 16.5H90L84.4 20.5L86.6 27L81 23L75.4 27L77.6 20.5L72 16.5H78.9L81 10Z" fill="#83B3D3"/>
</g>
<rect x="160" width="140" height="37" rx="4" fill="#F2F2F2"/>
<path d="M184.462 13.912C184.868 13.816 185.305 13.752 185.774 13.72C186.244 13.688 186.708 13.672 187.166 13.672C187.657 13.672 188.153 13.72 188.654 13.816C189.166 13.912 189.63 14.088 190.046 14.344C190.462 14.6 190.798 14.952 191.054 15.4C191.321 15.848 191.454 16.4187 191.454 17.112C191.454 17.7947 191.332 18.3707 191.086 18.84C190.841 19.3093 190.516 19.6933 190.11 19.992C189.705 20.28 189.241 20.488 188.718 20.616C188.196 20.744 187.657 20.808 187.102 20.808C187.049 20.808 186.958 20.808 186.83 20.808C186.713 20.808 186.585 20.808 186.446 20.808C186.318 20.7973 186.19 20.7867 186.062 20.776C185.934 20.7653 185.844 20.7547 185.79 20.744V25H184.462V13.912ZM187.198 14.824C186.921 14.824 186.654 14.8293 186.398 14.84C186.142 14.8507 185.94 14.8773 185.79 14.92V19.56C185.844 19.5813 185.929 19.5973 186.046 19.608C186.164 19.608 186.286 19.6133 186.414 19.624C186.542 19.624 186.665 19.624 186.782 19.624C186.9 19.624 186.985 19.624 187.038 19.624C187.401 19.624 187.758 19.592 188.11 19.528C188.473 19.4533 188.798 19.3253 189.086 19.144C189.374 18.9627 189.604 18.7067 189.774 18.376C189.956 18.0453 190.046 17.624 190.046 17.112C190.046 16.6747 189.961 16.312 189.79 16.024C189.63 15.7253 189.412 15.4907 189.134 15.32C188.868 15.1387 188.564 15.0107 188.222 14.936C187.881 14.8613 187.54 14.824 187.198 14.824ZM193.4 13.8H199.496V14.984H194.728V18.648H199.096V19.832H194.728V23.816H199.576V25H193.4V13.8ZM208.826 17.416L208.922 16.136H208.858L208.17 17.448L202.762 25H201.978V13.8H203.306V21.48L203.194 22.744H203.258L203.962 21.432L209.37 13.8H210.154V25H208.826V17.416ZM204.746 11.08C204.788 11.4747 204.938 11.7787 205.194 11.992C205.45 12.2053 205.791 12.312 206.218 12.312C206.644 12.312 206.98 12.2053 207.226 11.992C207.482 11.7787 207.636 11.48 207.69 11.096L208.826 11.368C208.708 11.944 208.436 12.4027 208.01 12.744C207.594 13.0747 206.991 13.24 206.202 13.24C205.444 13.24 204.82 13.096 204.33 12.808C203.85 12.5093 203.567 12.04 203.482 11.4L204.746 11.08ZM220.1 14.984H216.612V25H215.284V14.984H211.796V13.8H220.1V14.984ZM228.591 17.416L228.687 16.136H228.623L227.935 17.448L222.527 25H221.743V13.8H223.071V21.48L222.959 22.744H223.023L223.727 21.432L229.135 13.8H229.919V25H228.591V17.416ZM239.338 19.864H233.962V25H232.634V13.8H233.962V18.68H239.338V13.8H240.666V25H239.338V19.864ZM249.384 14.984H244.712V25H243.384V13.8H249.384V14.984ZM250.558 17.816C250.558 17.528 250.638 17.304 250.798 17.144C250.969 16.9733 251.193 16.888 251.47 16.888C251.758 16.888 251.988 16.9733 252.158 17.144C252.329 17.304 252.414 17.528 252.414 17.816C252.414 18.0933 252.329 18.3173 252.158 18.488C251.988 18.6587 251.758 18.744 251.47 18.744C251.193 18.744 250.969 18.6587 250.798 18.488C250.638 18.3173 250.558 18.0933 250.558 17.816ZM250.558 24.264C250.558 23.976 250.638 23.752 250.798 23.592C250.969 23.4213 251.193 23.336 251.47 23.336C251.758 23.336 251.988 23.4213 252.158 23.592C252.329 23.752 252.414 23.976 252.414 24.264C252.414 24.5413 252.329 24.7653 252.158 24.936C251.988 25.1067 251.758 25.192 251.47 25.192C251.193 25.192 250.969 25.1067 250.798 24.936C250.638 24.7653 250.558 24.5413 250.558 24.264ZM257.956 22.328C257.956 21.656 258.132 21.0747 258.484 20.584C258.836 20.0827 259.385 19.6293 260.132 19.224C259.865 19.064 259.614 18.8987 259.38 18.728C259.156 18.5467 258.953 18.344 258.772 18.12C258.601 17.896 258.462 17.6453 258.356 17.368C258.26 17.0907 258.212 16.7707 258.212 16.408C258.212 15.992 258.281 15.6133 258.42 15.272C258.569 14.9307 258.777 14.6373 259.044 14.392C259.321 14.1467 259.646 13.9547 260.02 13.816C260.404 13.6773 260.836 13.608 261.316 13.608C261.764 13.608 262.169 13.672 262.532 13.8C262.894 13.928 263.198 14.104 263.444 14.328C263.7 14.552 263.897 14.8187 264.036 15.128C264.174 15.4373 264.244 15.7787 264.244 16.152C264.244 16.76 264.105 17.2987 263.828 17.768C263.55 18.2267 263.092 18.68 262.452 19.128C262.729 19.288 262.99 19.464 263.236 19.656C263.492 19.848 263.71 20.0613 263.892 20.296C264.084 20.5307 264.233 20.7973 264.34 21.096C264.446 21.384 264.5 21.7147 264.5 22.088C264.5 22.5467 264.425 22.968 264.276 23.352C264.126 23.7253 263.908 24.0507 263.62 24.328C263.332 24.5947 262.98 24.808 262.564 24.968C262.148 25.1173 261.673 25.192 261.14 25.192C260.628 25.192 260.174 25.1173 259.78 24.968C259.385 24.8187 259.049 24.616 258.772 24.36C258.505 24.104 258.302 23.8053 258.164 23.464C258.025 23.112 257.956 22.7333 257.956 22.328ZM263.252 22.168C263.252 21.848 263.188 21.5707 263.06 21.336C262.932 21.0907 262.761 20.872 262.548 20.68C262.345 20.4773 262.11 20.296 261.844 20.136C261.577 19.976 261.3 19.8213 261.012 19.672C260.361 20.0347 259.897 20.44 259.62 20.888C259.342 21.336 259.204 21.7627 259.204 22.168C259.204 22.424 259.246 22.6693 259.332 22.904C259.417 23.1387 259.545 23.3413 259.716 23.512C259.886 23.6827 260.094 23.8213 260.34 23.928C260.596 24.024 260.889 24.072 261.22 24.072C261.486 24.072 261.742 24.0347 261.988 23.96C262.233 23.8747 262.446 23.7573 262.628 23.608C262.82 23.448 262.969 23.2507 263.076 23.016C263.193 22.7707 263.252 22.488 263.252 22.168ZM259.46 16.376C259.46 16.6747 259.518 16.9413 259.636 17.176C259.753 17.4 259.908 17.6027 260.1 17.784C260.302 17.9653 260.532 18.136 260.788 18.296C261.044 18.4453 261.31 18.5893 261.588 18.728C262.068 18.3547 262.42 17.9867 262.644 17.624C262.878 17.2613 262.996 16.8613 262.996 16.424C262.996 15.88 262.825 15.464 262.484 15.176C262.153 14.8773 261.753 14.728 261.284 14.728C260.996 14.728 260.74 14.776 260.516 14.872C260.292 14.968 260.1 15.0907 259.94 15.24C259.78 15.3893 259.657 15.5653 259.572 15.768C259.497 15.96 259.46 16.1627 259.46 16.376ZM266.371 24.312C266.371 24.056 266.456 23.848 266.627 23.688C266.797 23.528 267.016 23.448 267.283 23.448C267.613 23.448 267.88 23.5653 268.083 23.8C268.296 24.0347 268.403 24.376 268.403 24.824C268.403 25.208 268.349 25.544 268.243 25.832C268.136 26.12 267.997 26.3653 267.827 26.568C267.656 26.7813 267.469 26.952 267.267 27.08C267.064 27.2187 266.861 27.32 266.659 27.384L266.259 26.76C266.643 26.6107 266.925 26.376 267.107 26.056C267.299 25.7467 267.395 25.432 267.395 25.112C267.299 25.144 267.208 25.16 267.123 25.16C266.909 25.16 266.728 25.0907 266.579 24.952C266.44 24.8027 266.371 24.5893 266.371 24.312ZM272.588 24.072C273.324 24.072 273.932 23.8587 274.412 23.432C274.892 23.0053 275.132 22.3867 275.132 21.576C275.132 20.7973 274.892 20.216 274.412 19.832C273.943 19.448 273.292 19.256 272.46 19.256L271.116 19.336V13.8H276.108V14.984H272.316V18.168L273.004 18.136C274.06 18.1467 274.892 18.44 275.5 19.016C276.108 19.592 276.412 20.4187 276.412 21.496C276.412 22.0933 276.311 22.6267 276.108 23.096C275.906 23.5547 275.628 23.9387 275.276 24.248C274.935 24.5573 274.53 24.792 274.06 24.952C273.591 25.112 273.09 25.192 272.556 25.192C272.076 25.192 271.671 25.1653 271.34 25.112C271.01 25.0587 270.7 24.9787 270.412 24.872L270.748 23.784C270.994 23.88 271.255 23.9547 271.532 24.008C271.82 24.0507 272.172 24.072 272.588 24.072Z" fill="#333333"/>
<defs>
<clipPath id="clip0_82319_452">
<rect width="18" height="17" fill="white" transform="translate(0 10)"/>
</clipPath>
<clipPath id="clip1_82319_452">
<rect width="18" height="17" fill="white" transform="translate(24 10)"/>
</clipPath>
<clipPath id="clip2_82319_452">
<rect width="18" height="17" fill="white" transform="translate(48 10)"/>
</clipPath>
<clipPath id="clip3_82319_452">
<rect width="18" height="17" fill="white" transform="translate(72 10)"/>
</clipPath>
</defs>
</svg>
