<svg width="144" height="37" viewBox="0 0 144 37" fill="none" xmlns="http://www.w3.org/2000/svg">
<g filter="url(#filter0_d_82319_385)">
<g clip-path="url(#clip0_82319_385)">
<path d="M13 10L15.1 16.5H22L16.4 20.5L18.6 27L13 23L7.4 27L9.6 20.5L4 16.5H10.9L13 10Z" fill="#83B3D3"/>
</g>
<g clip-path="url(#clip1_82319_385)">
<path d="M37 10L39.1 16.5H46L40.4 20.5L42.6 27L37 23L31.4 27L33.6 20.5L28 16.5H34.9L37 10Z" fill="#83B3D3"/>
</g>
<g clip-path="url(#clip2_82319_385)">
<path d="M61 10L63.1 16.5H70L64.4 20.5L66.6 27L61 23L55.4 27L57.6 20.5L52 16.5H58.9L61 10Z" fill="#83B3D3"/>
</g>
</g>
<defs>
<filter id="filter0_d_82319_385" x="0" y="0" width="148" height="45" filterUnits="userSpaceOnUse" color-interpolation-filters="sRGB">
<feFlood flood-opacity="0" result="BackgroundImageFix"/>
<feColorMatrix in="SourceAlpha" type="matrix" values="0 0 0 0 0 0 0 0 0 0 0 0 0 0 0 0 0 0 127 0" result="hardAlpha"/>
<feOffset dy="4"/>
<feGaussianBlur stdDeviation="2"/>
<feComposite in2="hardAlpha" operator="out"/>
<feColorMatrix type="matrix" values="0 0 0 0 0 0 0 0 0 0 0 0 0 0 0 0 0 0 0.25 0"/>
<feBlend mode="normal" in2="BackgroundImageFix" result="effect1_dropShadow_82319_385"/>
<feBlend mode="normal" in="SourceGraphic" in2="effect1_dropShadow_82319_385" result="shape"/>
</filter>
<clipPath id="clip0_82319_385">
<rect width="18" height="17" fill="white" transform="translate(4 10)"/>
</clipPath>
<clipPath id="clip1_82319_385">
<rect width="18" height="17" fill="white" transform="translate(28 10)"/>
</clipPath>
<clipPath id="clip2_82319_385">
<rect width="18" height="17" fill="white" transform="translate(52 10)"/>
</clipPath>
</defs>
</svg>
